<svg viewBox="0 0 37 38" fill="none" xmlns="http://www.w3.org/2000/svg">
  <path d="M24.8926 18.2354C26.8913 18.1517 28.8481 18.8227 30.376 20.1152C31.9038 21.4078 32.8911 23.2273 33.1416 25.2139C33.392 27.2004 32.8877 29.2089 31.7285 30.8408L31.6553 30.9443L31.7441 31.0342L36.4629 35.7578L36.4668 35.7617C36.5851 35.8721 36.6803 36.0054 36.7461 36.1533C36.8119 36.3012 36.8468 36.4612 36.8496 36.623C36.8524 36.7848 36.8232 36.9457 36.7627 37.0957C36.7021 37.2459 36.6115 37.3826 36.4971 37.4971C36.3827 37.6115 36.2466 37.7021 36.0967 37.7627C35.9467 37.8233 35.7858 37.8525 35.624 37.8496C35.4624 37.8468 35.3029 37.8119 35.1553 37.7461C35.0075 37.6802 34.874 37.5843 34.7637 37.4658L34.7598 37.4629L30.042 32.7383L29.9521 32.6484L29.8486 32.7217C28.2182 33.8819 26.2122 34.3873 24.2275 34.1367C22.2428 33.8861 20.4243 32.8982 19.1328 31.3691C17.8413 29.8399 17.1712 27.8805 17.2549 25.8799C17.3386 23.8794 18.1695 21.9832 19.584 20.5674C20.9986 19.1515 22.8938 18.3191 24.8926 18.2354ZM21.2227 0.150391H31.0957C32.1338 0.150409 33.1292 0.563151 33.8633 1.29785C34.5972 2.03246 35.0097 3.0285 35.0098 4.06738V13.9424C35.0101 15.3658 34.4808 16.7347 33.5312 17.7852L33.3359 17.9912L32.3027 19.0244C31.7239 18.4531 31.0784 17.9542 30.3799 17.5381L31.6309 16.2842C32.2535 15.6646 32.6025 14.8206 32.6025 13.9424V4.06738C32.6024 3.66818 32.4432 3.28526 32.1611 3.00293C31.879 2.72069 31.4966 2.56158 31.0977 2.56152H21.2256C20.7904 2.56129 20.3592 2.64685 19.957 2.81348C19.5548 2.98015 19.1895 3.22505 18.8818 3.5332L3.50586 18.9424L3.50488 18.9434C2.89517 19.5675 2.55621 20.4074 2.56152 21.2803C2.56685 22.1531 2.91594 22.9888 3.5332 23.6055L11.5898 31.6582C12.212 32.2784 13.0545 32.6269 13.9326 32.627C14.8108 32.627 15.6532 32.2783 16.2754 31.6582H16.2764L16.5586 31.375C16.9743 32.0738 17.4723 32.7197 18.043 33.2988L17.9785 33.3633C16.9048 34.4351 15.45 35.0378 13.9336 35.0381C12.5121 35.0383 11.1451 34.5093 10.0947 33.5605L9.88867 33.3652L1.8291 25.3115C0.755539 24.2388 0.15182 22.783 0.150391 21.2646C0.14907 19.7461 0.750473 18.2886 1.82227 17.2139L17.1758 1.8291C17.707 1.29689 18.3379 0.874012 19.0322 0.585938C19.7265 0.297954 20.4712 0.150435 21.2227 0.150391ZM25.2246 20.6406C23.7478 20.6407 22.3314 21.2283 21.2871 22.2734C20.2427 23.3187 19.6562 24.7366 19.6562 26.2148C19.6563 27.693 20.2428 29.111 21.2871 30.1562C22.3314 31.2013 23.7478 31.788 25.2246 31.7881C26.7016 31.7881 28.1187 31.2015 29.1631 30.1562C30.2074 29.111 30.7939 27.693 30.7939 26.2148C30.7939 24.7366 30.2075 23.3187 29.1631 22.2734C28.1187 21.2281 26.7016 20.6406 25.2246 20.6406ZM26.1279 6.48145C26.8067 6.48145 27.4585 6.75102 27.9385 7.23145C28.4183 7.71182 28.6874 8.36362 28.6875 9.04297C28.6875 9.72229 28.4183 10.3741 27.9385 10.8545C27.4585 11.3349 26.8067 11.6055 26.1279 11.6055C25.4493 11.6054 24.7983 11.3349 24.3184 10.8545C23.8384 10.3741 23.5684 9.72238 23.5684 9.04297C23.5684 8.36355 23.8384 7.71183 24.3184 7.23145C24.7983 6.75112 25.4493 6.48152 26.1279 6.48145Z" fill="url(#paint0_radial_0_16)" fill-opacity="0.3" stroke="url(#paint1_linear_0_16)" stroke-width="0.3"/>
  <defs>
    <radialGradient id="paint0_radial_0_16" cx="0" cy="0" r="1" gradientUnits="userSpaceOnUse" gradientTransform="translate(18.5 19) rotate(90) scale(19 18.5)">
      <stop stop-color="#02EEE1"/>
      <stop offset="1" stop-color="#02EEE1"/>
    </radialGradient>
    <linearGradient id="paint1_linear_0_16" x1="0" y1="0" x2="37" y2="38" gradientUnits="userSpaceOnUse">
      <stop stop-color="#02EEE1"/>
      <stop offset="0.5" stop-color="#02EEE1" stop-opacity="0.1"/>
      <stop offset="1" stop-opacity="0.01"/>
    </linearGradient>
  </defs>
</svg>
